<?xml version="1.0" encoding="UTF-8"?><svg id="Ebene_1" xmlns="http://www.w3.org/2000/svg" viewBox="0 0 50.7 37.99"><defs><style>.cls-1{fill:#e30613;}</style></defs><path class="cls-1" d="m.26,20.36c1.22.3,2.4.74,3.57,1.26,4.39,1.95,8.43,4.71,12.28,7.92,2.96,2.47,5.75,5.2,8.26,8.35.13.16.19.1.28-.03.39-.56.78-1.11,1.18-1.65.15-.2.14-.29-.01-.47-4.47-5.28-9.53-9.53-15.06-12.94-.98-.61-1.99-1.16-3-1.7-.19-.1-.2-.18-.05-.35.13-.13.28-.2.44-.26.55-.21,1.13-.21,1.7-.21,7.99,0,15.98,0,23.98,0,1.79,0,14.5,0,16.28,0h.59v-2.58c-10.01,0-30.94,0-40.95,0-.34,0-.69,0-1.03-.06-.33-.06-.66-.13-.95-.36-.08-.06-.18-.14-.17-.27,0-.11.12-.12.19-.15,4.2-2.22,8.14-5,11.85-8.29,2.19-1.94,4.26-4.06,6.2-6.36.12-.14.14-.23.02-.39-.41-.56-.82-1.12-1.22-1.69-.11-.16-.18-.18-.3-.02-.26.35-.54.68-.81,1-4.52,5.29-9.63,9.53-15.22,12.91-2.6,1.57-5.29,2.89-8.14,3.63-.15.04-.17.13-.17.3,0,.66.01,1.33,0,1.99,0,.25.05.37.26.42Z"/></svg>